<mxfile host="app.diagrams.net" modified="2024-05-26T14:53:02.496Z" agent="Mozilla/5.0 (Windows NT 10.0; Win64; x64) AppleWebKit/537.36 (KHTML, like Gecko) Chrome/125.0.0.0 Safari/537.36" etag="pDPFdUpFt0SCOahon1_7" version="24.4.8" type="github">
  <diagram id="C5RBs43oDa-KdzZeNtuy" name="Page-1">
    <mxGraphModel dx="2869" dy="1049" grid="1" gridSize="10" guides="1" tooltips="1" connect="1" arrows="1" fold="1" page="1" pageScale="1" pageWidth="827" pageHeight="1169" math="0" shadow="0">
      <root>
        <mxCell id="WIyWlLk6GJQsqaUBKTNV-0" />
        <mxCell id="WIyWlLk6GJQsqaUBKTNV-1" parent="WIyWlLk6GJQsqaUBKTNV-0" />
        <mxCell id="WIyWlLk6GJQsqaUBKTNV-2" value="" style="rounded=0;html=1;jettySize=auto;orthogonalLoop=1;fontSize=11;endArrow=block;endFill=0;endSize=8;strokeWidth=1;shadow=0;labelBackgroundColor=none;edgeStyle=orthogonalEdgeStyle;" parent="WIyWlLk6GJQsqaUBKTNV-1" source="WIyWlLk6GJQsqaUBKTNV-3" target="WIyWlLk6GJQsqaUBKTNV-6" edge="1">
          <mxGeometry relative="1" as="geometry" />
        </mxCell>
        <mxCell id="WIyWlLk6GJQsqaUBKTNV-3" value="Start" style="rounded=1;whiteSpace=wrap;html=1;fontSize=12;glass=0;strokeWidth=1;shadow=0;" parent="WIyWlLk6GJQsqaUBKTNV-1" vertex="1">
          <mxGeometry x="180" y="40" width="120" height="40" as="geometry" />
        </mxCell>
        <mxCell id="WIyWlLk6GJQsqaUBKTNV-5" value="" style="edgeStyle=orthogonalEdgeStyle;rounded=0;html=1;jettySize=auto;orthogonalLoop=1;fontSize=11;endArrow=block;endFill=0;endSize=8;strokeWidth=1;shadow=0;labelBackgroundColor=none;" parent="WIyWlLk6GJQsqaUBKTNV-1" source="WIyWlLk6GJQsqaUBKTNV-6" edge="1">
          <mxGeometry y="10" relative="1" as="geometry">
            <mxPoint as="offset" />
            <mxPoint x="450" y="210" as="targetPoint" />
          </mxGeometry>
        </mxCell>
        <mxCell id="UPKNqpDb2F0XAEcJruI5-4" value="Yes" style="edgeLabel;html=1;align=center;verticalAlign=middle;resizable=0;points=[];" vertex="1" connectable="0" parent="WIyWlLk6GJQsqaUBKTNV-5">
          <mxGeometry x="-0.1033" y="2" relative="1" as="geometry">
            <mxPoint as="offset" />
          </mxGeometry>
        </mxCell>
        <mxCell id="UPKNqpDb2F0XAEcJruI5-2" value="" style="edgeStyle=orthogonalEdgeStyle;rounded=0;orthogonalLoop=1;jettySize=auto;html=1;" edge="1" parent="WIyWlLk6GJQsqaUBKTNV-1" source="WIyWlLk6GJQsqaUBKTNV-6" target="UPKNqpDb2F0XAEcJruI5-0">
          <mxGeometry relative="1" as="geometry" />
        </mxCell>
        <mxCell id="UPKNqpDb2F0XAEcJruI5-3" value="No&lt;div&gt;&lt;br&gt;&lt;/div&gt;" style="edgeLabel;html=1;align=center;verticalAlign=middle;resizable=0;points=[];" vertex="1" connectable="0" parent="UPKNqpDb2F0XAEcJruI5-2">
          <mxGeometry x="-0.0541" y="4" relative="1" as="geometry">
            <mxPoint as="offset" />
          </mxGeometry>
        </mxCell>
        <mxCell id="WIyWlLk6GJQsqaUBKTNV-6" value="Already have an account?" style="rhombus;whiteSpace=wrap;html=1;shadow=0;fontFamily=Helvetica;fontSize=12;align=center;strokeWidth=1;spacing=6;spacingTop=-4;" parent="WIyWlLk6GJQsqaUBKTNV-1" vertex="1">
          <mxGeometry x="180" y="170" width="115" height="80" as="geometry" />
        </mxCell>
        <mxCell id="UPKNqpDb2F0XAEcJruI5-10" style="edgeStyle=orthogonalEdgeStyle;rounded=0;orthogonalLoop=1;jettySize=auto;html=1;exitX=0.5;exitY=1;exitDx=0;exitDy=0;entryX=0.5;entryY=0;entryDx=0;entryDy=0;" edge="1" parent="WIyWlLk6GJQsqaUBKTNV-1" source="UPKNqpDb2F0XAEcJruI5-0" target="UPKNqpDb2F0XAEcJruI5-9">
          <mxGeometry relative="1" as="geometry" />
        </mxCell>
        <mxCell id="UPKNqpDb2F0XAEcJruI5-11" value="Yes" style="edgeLabel;html=1;align=center;verticalAlign=middle;resizable=0;points=[];" vertex="1" connectable="0" parent="UPKNqpDb2F0XAEcJruI5-10">
          <mxGeometry x="0.0381" y="1" relative="1" as="geometry">
            <mxPoint y="-1" as="offset" />
          </mxGeometry>
        </mxCell>
        <mxCell id="UPKNqpDb2F0XAEcJruI5-0" value="Want to register?" style="rhombus;whiteSpace=wrap;html=1;shadow=0;fontFamily=Helvetica;fontSize=12;align=center;strokeWidth=1;spacing=6;spacingTop=-4;" vertex="1" parent="WIyWlLk6GJQsqaUBKTNV-1">
          <mxGeometry x="-10" y="165" width="120" height="90" as="geometry" />
        </mxCell>
        <mxCell id="UPKNqpDb2F0XAEcJruI5-25" value="" style="edgeStyle=orthogonalEdgeStyle;rounded=0;orthogonalLoop=1;jettySize=auto;html=1;" edge="1" parent="WIyWlLk6GJQsqaUBKTNV-1" source="UPKNqpDb2F0XAEcJruI5-5" target="UPKNqpDb2F0XAEcJruI5-23">
          <mxGeometry relative="1" as="geometry" />
        </mxCell>
        <mxCell id="UPKNqpDb2F0XAEcJruI5-26" value="No" style="edgeLabel;html=1;align=center;verticalAlign=middle;resizable=0;points=[];" vertex="1" connectable="0" parent="UPKNqpDb2F0XAEcJruI5-25">
          <mxGeometry x="0.2248" y="-3" relative="1" as="geometry">
            <mxPoint x="1" as="offset" />
          </mxGeometry>
        </mxCell>
        <mxCell id="UPKNqpDb2F0XAEcJruI5-40" value="" style="edgeStyle=orthogonalEdgeStyle;rounded=0;orthogonalLoop=1;jettySize=auto;html=1;" edge="1" parent="WIyWlLk6GJQsqaUBKTNV-1" source="UPKNqpDb2F0XAEcJruI5-5" target="UPKNqpDb2F0XAEcJruI5-39">
          <mxGeometry relative="1" as="geometry">
            <Array as="points">
              <mxPoint x="498" y="295" />
              <mxPoint x="330" y="295" />
              <mxPoint x="330" y="380" />
            </Array>
          </mxGeometry>
        </mxCell>
        <mxCell id="UPKNqpDb2F0XAEcJruI5-44" value="Yes" style="edgeLabel;html=1;align=center;verticalAlign=middle;resizable=0;points=[];" vertex="1" connectable="0" parent="UPKNqpDb2F0XAEcJruI5-40">
          <mxGeometry x="-0.5372" y="-2" relative="1" as="geometry">
            <mxPoint as="offset" />
          </mxGeometry>
        </mxCell>
        <mxCell id="UPKNqpDb2F0XAEcJruI5-5" value="Login via email&lt;div&gt;and password&lt;/div&gt;" style="rhombus;whiteSpace=wrap;html=1;shadow=0;fontFamily=Helvetica;fontSize=12;align=center;strokeWidth=1;spacing=6;spacingTop=-4;" vertex="1" parent="WIyWlLk6GJQsqaUBKTNV-1">
          <mxGeometry x="440" y="170" width="115" height="80" as="geometry" />
        </mxCell>
        <mxCell id="UPKNqpDb2F0XAEcJruI5-6" value="Exit" style="rounded=1;whiteSpace=wrap;html=1;" vertex="1" parent="WIyWlLk6GJQsqaUBKTNV-1">
          <mxGeometry x="-180" y="195" width="80" height="30" as="geometry" />
        </mxCell>
        <mxCell id="UPKNqpDb2F0XAEcJruI5-7" style="edgeStyle=orthogonalEdgeStyle;rounded=0;orthogonalLoop=1;jettySize=auto;html=1;exitX=0;exitY=0.5;exitDx=0;exitDy=0;entryX=1.15;entryY=0.647;entryDx=0;entryDy=0;entryPerimeter=0;" edge="1" parent="WIyWlLk6GJQsqaUBKTNV-1" source="UPKNqpDb2F0XAEcJruI5-0" target="UPKNqpDb2F0XAEcJruI5-6">
          <mxGeometry relative="1" as="geometry" />
        </mxCell>
        <mxCell id="UPKNqpDb2F0XAEcJruI5-8" value="No" style="edgeLabel;html=1;align=center;verticalAlign=middle;resizable=0;points=[];" vertex="1" connectable="0" parent="UPKNqpDb2F0XAEcJruI5-7">
          <mxGeometry x="-0.22" y="-2" relative="1" as="geometry">
            <mxPoint as="offset" />
          </mxGeometry>
        </mxCell>
        <mxCell id="UPKNqpDb2F0XAEcJruI5-15" style="edgeStyle=orthogonalEdgeStyle;rounded=0;orthogonalLoop=1;jettySize=auto;html=1;exitX=0;exitY=0.5;exitDx=0;exitDy=0;entryX=1;entryY=0.5;entryDx=0;entryDy=0;" edge="1" parent="WIyWlLk6GJQsqaUBKTNV-1" source="UPKNqpDb2F0XAEcJruI5-9" target="UPKNqpDb2F0XAEcJruI5-14">
          <mxGeometry relative="1" as="geometry" />
        </mxCell>
        <mxCell id="UPKNqpDb2F0XAEcJruI5-16" value="No" style="edgeLabel;html=1;align=center;verticalAlign=middle;resizable=0;points=[];" vertex="1" connectable="0" parent="UPKNqpDb2F0XAEcJruI5-15">
          <mxGeometry x="-0.0248" relative="1" as="geometry">
            <mxPoint as="offset" />
          </mxGeometry>
        </mxCell>
        <mxCell id="UPKNqpDb2F0XAEcJruI5-49" style="edgeStyle=orthogonalEdgeStyle;rounded=0;orthogonalLoop=1;jettySize=auto;html=1;exitX=1;exitY=0;exitDx=0;exitDy=0;" edge="1" parent="WIyWlLk6GJQsqaUBKTNV-1" source="UPKNqpDb2F0XAEcJruI5-9" target="UPKNqpDb2F0XAEcJruI5-39">
          <mxGeometry relative="1" as="geometry" />
        </mxCell>
        <mxCell id="UPKNqpDb2F0XAEcJruI5-50" value="Yes" style="edgeLabel;html=1;align=center;verticalAlign=middle;resizable=0;points=[];" vertex="1" connectable="0" parent="UPKNqpDb2F0XAEcJruI5-49">
          <mxGeometry x="0.1959" relative="1" as="geometry">
            <mxPoint as="offset" />
          </mxGeometry>
        </mxCell>
        <mxCell id="UPKNqpDb2F0XAEcJruI5-9" value="Register as Student?" style="rhombus;whiteSpace=wrap;html=1;shadow=0;fontFamily=Helvetica;fontSize=12;align=center;strokeWidth=1;spacing=6;spacingTop=-4;" vertex="1" parent="WIyWlLk6GJQsqaUBKTNV-1">
          <mxGeometry x="-10" y="340" width="120" height="90" as="geometry" />
        </mxCell>
        <mxCell id="UPKNqpDb2F0XAEcJruI5-32" value="" style="edgeStyle=orthogonalEdgeStyle;rounded=0;orthogonalLoop=1;jettySize=auto;html=1;" edge="1" parent="WIyWlLk6GJQsqaUBKTNV-1" source="UPKNqpDb2F0XAEcJruI5-14" target="UPKNqpDb2F0XAEcJruI5-29">
          <mxGeometry relative="1" as="geometry" />
        </mxCell>
        <mxCell id="UPKNqpDb2F0XAEcJruI5-33" value="Yes" style="edgeLabel;html=1;align=center;verticalAlign=middle;resizable=0;points=[];" vertex="1" connectable="0" parent="UPKNqpDb2F0XAEcJruI5-32">
          <mxGeometry x="-0.3039" y="1" relative="1" as="geometry">
            <mxPoint as="offset" />
          </mxGeometry>
        </mxCell>
        <mxCell id="UPKNqpDb2F0XAEcJruI5-14" value="Register as&lt;div&gt;&amp;nbsp;Admin?&lt;/div&gt;" style="rhombus;whiteSpace=wrap;html=1;shadow=0;fontFamily=Helvetica;fontSize=12;align=center;strokeWidth=1;spacing=6;spacingTop=-4;" vertex="1" parent="WIyWlLk6GJQsqaUBKTNV-1">
          <mxGeometry x="-220" y="340" width="120" height="90" as="geometry" />
        </mxCell>
        <mxCell id="UPKNqpDb2F0XAEcJruI5-19" value="Exit" style="rounded=1;whiteSpace=wrap;html=1;" vertex="1" parent="WIyWlLk6GJQsqaUBKTNV-1">
          <mxGeometry x="-380" y="370" width="80" height="30" as="geometry" />
        </mxCell>
        <mxCell id="UPKNqpDb2F0XAEcJruI5-20" style="edgeStyle=orthogonalEdgeStyle;rounded=0;orthogonalLoop=1;jettySize=auto;html=1;exitX=0;exitY=0.5;exitDx=0;exitDy=0;entryX=1.106;entryY=0.539;entryDx=0;entryDy=0;entryPerimeter=0;" edge="1" parent="WIyWlLk6GJQsqaUBKTNV-1" source="UPKNqpDb2F0XAEcJruI5-14" target="UPKNqpDb2F0XAEcJruI5-19">
          <mxGeometry relative="1" as="geometry" />
        </mxCell>
        <mxCell id="UPKNqpDb2F0XAEcJruI5-28" value="No" style="edgeLabel;html=1;align=center;verticalAlign=middle;resizable=0;points=[];" vertex="1" connectable="0" parent="UPKNqpDb2F0XAEcJruI5-20">
          <mxGeometry x="-0.2944" y="-1" relative="1" as="geometry">
            <mxPoint as="offset" />
          </mxGeometry>
        </mxCell>
        <mxCell id="UPKNqpDb2F0XAEcJruI5-23" value="Exit" style="rounded=1;whiteSpace=wrap;html=1;" vertex="1" parent="WIyWlLk6GJQsqaUBKTNV-1">
          <mxGeometry x="650" y="195" width="80" height="30" as="geometry" />
        </mxCell>
        <mxCell id="UPKNqpDb2F0XAEcJruI5-37" value="" style="edgeStyle=orthogonalEdgeStyle;rounded=0;orthogonalLoop=1;jettySize=auto;html=1;entryX=0.5;entryY=0;entryDx=0;entryDy=0;" edge="1" parent="WIyWlLk6GJQsqaUBKTNV-1" source="UPKNqpDb2F0XAEcJruI5-29" target="UPKNqpDb2F0XAEcJruI5-56">
          <mxGeometry relative="1" as="geometry">
            <mxPoint x="-160" y="660" as="targetPoint" />
          </mxGeometry>
        </mxCell>
        <mxCell id="UPKNqpDb2F0XAEcJruI5-38" value="Yes" style="edgeLabel;html=1;align=center;verticalAlign=middle;resizable=0;points=[];" vertex="1" connectable="0" parent="UPKNqpDb2F0XAEcJruI5-37">
          <mxGeometry x="-0.1529" y="1" relative="1" as="geometry">
            <mxPoint as="offset" />
          </mxGeometry>
        </mxCell>
        <mxCell id="UPKNqpDb2F0XAEcJruI5-29" value="Admin Confirmation&lt;div&gt;Code&lt;/div&gt;" style="rhombus;whiteSpace=wrap;html=1;shadow=0;fontFamily=Helvetica;fontSize=12;align=center;strokeWidth=1;spacing=6;spacingTop=-4;" vertex="1" parent="WIyWlLk6GJQsqaUBKTNV-1">
          <mxGeometry x="-225" y="490" width="130" height="95" as="geometry" />
        </mxCell>
        <mxCell id="UPKNqpDb2F0XAEcJruI5-34" style="edgeStyle=orthogonalEdgeStyle;rounded=0;orthogonalLoop=1;jettySize=auto;html=1;exitX=1;exitY=0;exitDx=0;exitDy=0;entryX=0.845;entryY=0.592;entryDx=0;entryDy=0;entryPerimeter=0;" edge="1" parent="WIyWlLk6GJQsqaUBKTNV-1" source="UPKNqpDb2F0XAEcJruI5-29" target="UPKNqpDb2F0XAEcJruI5-14">
          <mxGeometry relative="1" as="geometry" />
        </mxCell>
        <mxCell id="UPKNqpDb2F0XAEcJruI5-35" value="No" style="edgeLabel;html=1;align=center;verticalAlign=middle;resizable=0;points=[];" vertex="1" connectable="0" parent="UPKNqpDb2F0XAEcJruI5-34">
          <mxGeometry x="0.0007" y="1" relative="1" as="geometry">
            <mxPoint as="offset" />
          </mxGeometry>
        </mxCell>
        <mxCell id="UPKNqpDb2F0XAEcJruI5-42" value="" style="edgeStyle=orthogonalEdgeStyle;rounded=0;orthogonalLoop=1;jettySize=auto;html=1;" edge="1" parent="WIyWlLk6GJQsqaUBKTNV-1" source="UPKNqpDb2F0XAEcJruI5-39" target="UPKNqpDb2F0XAEcJruI5-41">
          <mxGeometry relative="1" as="geometry">
            <Array as="points">
              <mxPoint x="330" y="470" />
              <mxPoint x="328" y="470" />
            </Array>
          </mxGeometry>
        </mxCell>
        <mxCell id="UPKNqpDb2F0XAEcJruI5-43" value="No" style="edgeLabel;html=1;align=center;verticalAlign=middle;resizable=0;points=[];" vertex="1" connectable="0" parent="UPKNqpDb2F0XAEcJruI5-42">
          <mxGeometry x="-0.2661" y="2" relative="1" as="geometry">
            <mxPoint as="offset" />
          </mxGeometry>
        </mxCell>
        <mxCell id="UPKNqpDb2F0XAEcJruI5-55" value="" style="edgeStyle=orthogonalEdgeStyle;rounded=0;orthogonalLoop=1;jettySize=auto;html=1;" edge="1" parent="WIyWlLk6GJQsqaUBKTNV-1" source="UPKNqpDb2F0XAEcJruI5-39" target="UPKNqpDb2F0XAEcJruI5-54">
          <mxGeometry relative="1" as="geometry" />
        </mxCell>
        <mxCell id="UPKNqpDb2F0XAEcJruI5-39" value="Student?" style="rhombus;whiteSpace=wrap;html=1;shadow=0;fontFamily=Helvetica;fontSize=12;align=center;strokeWidth=1;spacing=6;spacingTop=-4;" vertex="1" parent="WIyWlLk6GJQsqaUBKTNV-1">
          <mxGeometry x="270" y="350" width="115" height="80" as="geometry" />
        </mxCell>
        <mxCell id="UPKNqpDb2F0XAEcJruI5-41" value="Admin?" style="rhombus;whiteSpace=wrap;html=1;shadow=0;fontFamily=Helvetica;fontSize=12;align=center;strokeWidth=1;spacing=6;spacingTop=-4;" vertex="1" parent="WIyWlLk6GJQsqaUBKTNV-1">
          <mxGeometry x="270" y="510" width="115" height="80" as="geometry" />
        </mxCell>
        <mxCell id="UPKNqpDb2F0XAEcJruI5-45" style="edgeStyle=orthogonalEdgeStyle;rounded=0;orthogonalLoop=1;jettySize=auto;html=1;entryX=0.891;entryY=0.3;entryDx=0;entryDy=0;entryPerimeter=0;" edge="1" parent="WIyWlLk6GJQsqaUBKTNV-1" source="UPKNqpDb2F0XAEcJruI5-41">
          <mxGeometry relative="1" as="geometry">
            <mxPoint x="300" y="580" as="sourcePoint" />
            <mxPoint x="-107.92000000000007" y="698.5" as="targetPoint" />
            <Array as="points">
              <mxPoint x="-40" y="550" />
              <mxPoint x="-40" y="699" />
            </Array>
          </mxGeometry>
        </mxCell>
        <mxCell id="UPKNqpDb2F0XAEcJruI5-46" value="Yes" style="edgeLabel;html=1;align=center;verticalAlign=middle;resizable=0;points=[];" vertex="1" connectable="0" parent="UPKNqpDb2F0XAEcJruI5-45">
          <mxGeometry x="0.1322" y="3" relative="1" as="geometry">
            <mxPoint as="offset" />
          </mxGeometry>
        </mxCell>
        <mxCell id="UPKNqpDb2F0XAEcJruI5-58" value="" style="edgeStyle=orthogonalEdgeStyle;rounded=0;orthogonalLoop=1;jettySize=auto;html=1;" edge="1" parent="WIyWlLk6GJQsqaUBKTNV-1" source="UPKNqpDb2F0XAEcJruI5-54" target="UPKNqpDb2F0XAEcJruI5-57">
          <mxGeometry relative="1" as="geometry" />
        </mxCell>
        <mxCell id="UPKNqpDb2F0XAEcJruI5-54" value="Main Page" style="whiteSpace=wrap;html=1;shadow=0;strokeWidth=1;spacing=6;spacingTop=-4;" vertex="1" parent="WIyWlLk6GJQsqaUBKTNV-1">
          <mxGeometry x="462.5" y="360" width="120" height="60" as="geometry" />
        </mxCell>
        <mxCell id="UPKNqpDb2F0XAEcJruI5-86" value="" style="edgeStyle=orthogonalEdgeStyle;rounded=0;orthogonalLoop=1;jettySize=auto;html=1;" edge="1" parent="WIyWlLk6GJQsqaUBKTNV-1" source="UPKNqpDb2F0XAEcJruI5-56" target="UPKNqpDb2F0XAEcJruI5-85">
          <mxGeometry relative="1" as="geometry" />
        </mxCell>
        <mxCell id="UPKNqpDb2F0XAEcJruI5-56" value="Admin Main Page" style="rounded=0;whiteSpace=wrap;html=1;" vertex="1" parent="WIyWlLk6GJQsqaUBKTNV-1">
          <mxGeometry x="-225" y="670" width="120" height="60" as="geometry" />
        </mxCell>
        <mxCell id="UPKNqpDb2F0XAEcJruI5-60" value="" style="edgeStyle=orthogonalEdgeStyle;rounded=0;orthogonalLoop=1;jettySize=auto;html=1;" edge="1" parent="WIyWlLk6GJQsqaUBKTNV-1" source="UPKNqpDb2F0XAEcJruI5-57" target="UPKNqpDb2F0XAEcJruI5-59">
          <mxGeometry relative="1" as="geometry" />
        </mxCell>
        <mxCell id="UPKNqpDb2F0XAEcJruI5-75" value="No" style="edgeLabel;html=1;align=center;verticalAlign=middle;resizable=0;points=[];" vertex="1" connectable="0" parent="UPKNqpDb2F0XAEcJruI5-60">
          <mxGeometry x="-0.2721" y="-2" relative="1" as="geometry">
            <mxPoint as="offset" />
          </mxGeometry>
        </mxCell>
        <mxCell id="UPKNqpDb2F0XAEcJruI5-78" value="" style="edgeStyle=orthogonalEdgeStyle;rounded=0;orthogonalLoop=1;jettySize=auto;html=1;" edge="1" parent="WIyWlLk6GJQsqaUBKTNV-1" source="UPKNqpDb2F0XAEcJruI5-57" target="UPKNqpDb2F0XAEcJruI5-77">
          <mxGeometry relative="1" as="geometry" />
        </mxCell>
        <mxCell id="UPKNqpDb2F0XAEcJruI5-125" value="Yes" style="edgeLabel;html=1;align=center;verticalAlign=middle;resizable=0;points=[];" vertex="1" connectable="0" parent="UPKNqpDb2F0XAEcJruI5-78">
          <mxGeometry x="-0.1993" y="3" relative="1" as="geometry">
            <mxPoint as="offset" />
          </mxGeometry>
        </mxCell>
        <mxCell id="UPKNqpDb2F0XAEcJruI5-57" value="Go to Menu?" style="rhombus;whiteSpace=wrap;html=1;shadow=0;strokeWidth=1;spacing=6;spacingTop=-4;" vertex="1" parent="WIyWlLk6GJQsqaUBKTNV-1">
          <mxGeometry x="482.5" y="490" width="137.5" height="80" as="geometry" />
        </mxCell>
        <mxCell id="UPKNqpDb2F0XAEcJruI5-62" value="" style="edgeStyle=orthogonalEdgeStyle;rounded=0;orthogonalLoop=1;jettySize=auto;html=1;" edge="1" parent="WIyWlLk6GJQsqaUBKTNV-1" source="UPKNqpDb2F0XAEcJruI5-59" target="UPKNqpDb2F0XAEcJruI5-61">
          <mxGeometry relative="1" as="geometry" />
        </mxCell>
        <mxCell id="UPKNqpDb2F0XAEcJruI5-74" value="No" style="edgeLabel;html=1;align=center;verticalAlign=middle;resizable=0;points=[];" vertex="1" connectable="0" parent="UPKNqpDb2F0XAEcJruI5-62">
          <mxGeometry x="-0.2132" y="4" relative="1" as="geometry">
            <mxPoint as="offset" />
          </mxGeometry>
        </mxCell>
        <mxCell id="UPKNqpDb2F0XAEcJruI5-80" value="" style="edgeStyle=orthogonalEdgeStyle;rounded=0;orthogonalLoop=1;jettySize=auto;html=1;" edge="1" parent="WIyWlLk6GJQsqaUBKTNV-1" source="UPKNqpDb2F0XAEcJruI5-59" target="UPKNqpDb2F0XAEcJruI5-79">
          <mxGeometry relative="1" as="geometry" />
        </mxCell>
        <mxCell id="UPKNqpDb2F0XAEcJruI5-124" value="Yes" style="edgeLabel;html=1;align=center;verticalAlign=middle;resizable=0;points=[];" vertex="1" connectable="0" parent="UPKNqpDb2F0XAEcJruI5-80">
          <mxGeometry x="-0.2789" y="-1" relative="1" as="geometry">
            <mxPoint as="offset" />
          </mxGeometry>
        </mxCell>
        <mxCell id="UPKNqpDb2F0XAEcJruI5-59" value="Go to Profile?" style="rhombus;whiteSpace=wrap;html=1;shadow=0;strokeWidth=1;spacing=6;spacingTop=-4;" vertex="1" parent="WIyWlLk6GJQsqaUBKTNV-1">
          <mxGeometry x="482.5" y="650" width="137.5" height="80" as="geometry" />
        </mxCell>
        <mxCell id="UPKNqpDb2F0XAEcJruI5-64" value="" style="edgeStyle=orthogonalEdgeStyle;rounded=0;orthogonalLoop=1;jettySize=auto;html=1;" edge="1" parent="WIyWlLk6GJQsqaUBKTNV-1" source="UPKNqpDb2F0XAEcJruI5-61" target="UPKNqpDb2F0XAEcJruI5-63">
          <mxGeometry relative="1" as="geometry" />
        </mxCell>
        <mxCell id="UPKNqpDb2F0XAEcJruI5-73" value="No" style="edgeLabel;html=1;align=center;verticalAlign=middle;resizable=0;points=[];" vertex="1" connectable="0" parent="UPKNqpDb2F0XAEcJruI5-64">
          <mxGeometry x="-0.2132" y="3" relative="1" as="geometry">
            <mxPoint as="offset" />
          </mxGeometry>
        </mxCell>
        <mxCell id="UPKNqpDb2F0XAEcJruI5-82" value="" style="edgeStyle=orthogonalEdgeStyle;rounded=0;orthogonalLoop=1;jettySize=auto;html=1;" edge="1" parent="WIyWlLk6GJQsqaUBKTNV-1" source="UPKNqpDb2F0XAEcJruI5-61" target="UPKNqpDb2F0XAEcJruI5-81">
          <mxGeometry relative="1" as="geometry" />
        </mxCell>
        <mxCell id="UPKNqpDb2F0XAEcJruI5-122" value="Yes" style="edgeLabel;html=1;align=center;verticalAlign=middle;resizable=0;points=[];" vertex="1" connectable="0" parent="UPKNqpDb2F0XAEcJruI5-82">
          <mxGeometry x="-0.0403" relative="1" as="geometry">
            <mxPoint as="offset" />
          </mxGeometry>
        </mxCell>
        <mxCell id="UPKNqpDb2F0XAEcJruI5-61" value="Go to QR?" style="rhombus;whiteSpace=wrap;html=1;shadow=0;strokeWidth=1;spacing=6;spacingTop=-4;" vertex="1" parent="WIyWlLk6GJQsqaUBKTNV-1">
          <mxGeometry x="482.5" y="810" width="137.5" height="80" as="geometry" />
        </mxCell>
        <mxCell id="UPKNqpDb2F0XAEcJruI5-66" value="" style="edgeStyle=orthogonalEdgeStyle;rounded=0;orthogonalLoop=1;jettySize=auto;html=1;" edge="1" parent="WIyWlLk6GJQsqaUBKTNV-1" source="UPKNqpDb2F0XAEcJruI5-63" target="UPKNqpDb2F0XAEcJruI5-65">
          <mxGeometry relative="1" as="geometry" />
        </mxCell>
        <mxCell id="UPKNqpDb2F0XAEcJruI5-72" value="No" style="edgeLabel;html=1;align=center;verticalAlign=middle;resizable=0;points=[];" vertex="1" connectable="0" parent="UPKNqpDb2F0XAEcJruI5-66">
          <mxGeometry x="-0.0022" y="2" relative="1" as="geometry">
            <mxPoint as="offset" />
          </mxGeometry>
        </mxCell>
        <mxCell id="UPKNqpDb2F0XAEcJruI5-84" value="" style="edgeStyle=orthogonalEdgeStyle;rounded=0;orthogonalLoop=1;jettySize=auto;html=1;" edge="1" parent="WIyWlLk6GJQsqaUBKTNV-1" source="UPKNqpDb2F0XAEcJruI5-63" target="UPKNqpDb2F0XAEcJruI5-83">
          <mxGeometry relative="1" as="geometry" />
        </mxCell>
        <mxCell id="UPKNqpDb2F0XAEcJruI5-123" value="Yes" style="edgeLabel;html=1;align=center;verticalAlign=middle;resizable=0;points=[];" vertex="1" connectable="0" parent="UPKNqpDb2F0XAEcJruI5-84">
          <mxGeometry x="-0.1198" y="3" relative="1" as="geometry">
            <mxPoint as="offset" />
          </mxGeometry>
        </mxCell>
        <mxCell id="UPKNqpDb2F0XAEcJruI5-63" value="Go to Order?" style="rhombus;whiteSpace=wrap;html=1;shadow=0;strokeWidth=1;spacing=6;spacingTop=-4;" vertex="1" parent="WIyWlLk6GJQsqaUBKTNV-1">
          <mxGeometry x="482.5" y="970" width="137.5" height="80" as="geometry" />
        </mxCell>
        <mxCell id="UPKNqpDb2F0XAEcJruI5-70" value="" style="edgeStyle=orthogonalEdgeStyle;rounded=0;orthogonalLoop=1;jettySize=auto;html=1;" edge="1" parent="WIyWlLk6GJQsqaUBKTNV-1" source="UPKNqpDb2F0XAEcJruI5-65" target="UPKNqpDb2F0XAEcJruI5-69">
          <mxGeometry relative="1" as="geometry" />
        </mxCell>
        <mxCell id="UPKNqpDb2F0XAEcJruI5-71" value="Yes" style="edgeLabel;html=1;align=center;verticalAlign=middle;resizable=0;points=[];" vertex="1" connectable="0" parent="UPKNqpDb2F0XAEcJruI5-70">
          <mxGeometry x="0.0353" relative="1" as="geometry">
            <mxPoint as="offset" />
          </mxGeometry>
        </mxCell>
        <mxCell id="UPKNqpDb2F0XAEcJruI5-137" style="edgeStyle=orthogonalEdgeStyle;rounded=0;orthogonalLoop=1;jettySize=auto;html=1;exitX=0.5;exitY=0;exitDx=0;exitDy=0;" edge="1" parent="WIyWlLk6GJQsqaUBKTNV-1" source="UPKNqpDb2F0XAEcJruI5-65">
          <mxGeometry relative="1" as="geometry">
            <mxPoint x="470" y="430" as="targetPoint" />
            <Array as="points">
              <mxPoint x="334" y="700" />
              <mxPoint x="470" y="700" />
            </Array>
          </mxGeometry>
        </mxCell>
        <mxCell id="UPKNqpDb2F0XAEcJruI5-138" value="No" style="edgeLabel;html=1;align=center;verticalAlign=middle;resizable=0;points=[];" vertex="1" connectable="0" parent="UPKNqpDb2F0XAEcJruI5-137">
          <mxGeometry x="0.0893" y="-3" relative="1" as="geometry">
            <mxPoint x="-1" as="offset" />
          </mxGeometry>
        </mxCell>
        <mxCell id="UPKNqpDb2F0XAEcJruI5-65" value="Go to Delog?" style="rhombus;whiteSpace=wrap;html=1;shadow=0;strokeWidth=1;spacing=6;spacingTop=-4;" vertex="1" parent="WIyWlLk6GJQsqaUBKTNV-1">
          <mxGeometry x="265" y="970" width="137.5" height="80" as="geometry" />
        </mxCell>
        <mxCell id="UPKNqpDb2F0XAEcJruI5-69" value="Start" style="whiteSpace=wrap;html=1;shadow=0;strokeWidth=1;spacing=6;spacingTop=-4;" vertex="1" parent="WIyWlLk6GJQsqaUBKTNV-1">
          <mxGeometry x="56.25" y="980" width="120" height="60" as="geometry" />
        </mxCell>
        <mxCell id="UPKNqpDb2F0XAEcJruI5-77" value="Menu Activity" style="whiteSpace=wrap;html=1;shadow=0;strokeWidth=1;spacing=6;spacingTop=-4;" vertex="1" parent="WIyWlLk6GJQsqaUBKTNV-1">
          <mxGeometry x="708.75" y="500" width="120" height="60" as="geometry" />
        </mxCell>
        <mxCell id="UPKNqpDb2F0XAEcJruI5-79" value="Profile Activity" style="whiteSpace=wrap;html=1;shadow=0;strokeWidth=1;spacing=6;spacingTop=-4;" vertex="1" parent="WIyWlLk6GJQsqaUBKTNV-1">
          <mxGeometry x="708.75" y="660" width="120" height="60" as="geometry" />
        </mxCell>
        <mxCell id="UPKNqpDb2F0XAEcJruI5-81" value="QR Activity" style="whiteSpace=wrap;html=1;shadow=0;strokeWidth=1;spacing=6;spacingTop=-4;" vertex="1" parent="WIyWlLk6GJQsqaUBKTNV-1">
          <mxGeometry x="708.75" y="820" width="120" height="60" as="geometry" />
        </mxCell>
        <mxCell id="UPKNqpDb2F0XAEcJruI5-83" value="Order Activity" style="whiteSpace=wrap;html=1;shadow=0;strokeWidth=1;spacing=6;spacingTop=-4;" vertex="1" parent="WIyWlLk6GJQsqaUBKTNV-1">
          <mxGeometry x="708.75" y="980" width="120" height="60" as="geometry" />
        </mxCell>
        <mxCell id="UPKNqpDb2F0XAEcJruI5-88" value="" style="edgeStyle=orthogonalEdgeStyle;rounded=0;orthogonalLoop=1;jettySize=auto;html=1;" edge="1" parent="WIyWlLk6GJQsqaUBKTNV-1" source="UPKNqpDb2F0XAEcJruI5-85" target="UPKNqpDb2F0XAEcJruI5-87">
          <mxGeometry relative="1" as="geometry" />
        </mxCell>
        <mxCell id="UPKNqpDb2F0XAEcJruI5-108" value="No" style="edgeLabel;html=1;align=center;verticalAlign=middle;resizable=0;points=[];" vertex="1" connectable="0" parent="UPKNqpDb2F0XAEcJruI5-88">
          <mxGeometry x="-0.1676" y="1" relative="1" as="geometry">
            <mxPoint as="offset" />
          </mxGeometry>
        </mxCell>
        <mxCell id="UPKNqpDb2F0XAEcJruI5-131" value="" style="edgeStyle=orthogonalEdgeStyle;rounded=0;orthogonalLoop=1;jettySize=auto;html=1;" edge="1" parent="WIyWlLk6GJQsqaUBKTNV-1" source="UPKNqpDb2F0XAEcJruI5-85" target="UPKNqpDb2F0XAEcJruI5-130">
          <mxGeometry relative="1" as="geometry" />
        </mxCell>
        <mxCell id="UPKNqpDb2F0XAEcJruI5-132" value="Yes" style="edgeLabel;html=1;align=center;verticalAlign=middle;resizable=0;points=[];" vertex="1" connectable="0" parent="UPKNqpDb2F0XAEcJruI5-131">
          <mxGeometry x="-0.012" y="2" relative="1" as="geometry">
            <mxPoint as="offset" />
          </mxGeometry>
        </mxCell>
        <mxCell id="UPKNqpDb2F0XAEcJruI5-85" value="Go to User&lt;div&gt;List?&lt;/div&gt;" style="rhombus;whiteSpace=wrap;html=1;rounded=0;" vertex="1" parent="WIyWlLk6GJQsqaUBKTNV-1">
          <mxGeometry x="-430" y="660" width="105" height="80" as="geometry" />
        </mxCell>
        <mxCell id="UPKNqpDb2F0XAEcJruI5-92" value="" style="edgeStyle=orthogonalEdgeStyle;rounded=0;orthogonalLoop=1;jettySize=auto;html=1;" edge="1" parent="WIyWlLk6GJQsqaUBKTNV-1" source="UPKNqpDb2F0XAEcJruI5-87" target="UPKNqpDb2F0XAEcJruI5-91">
          <mxGeometry relative="1" as="geometry" />
        </mxCell>
        <mxCell id="UPKNqpDb2F0XAEcJruI5-107" value="No" style="edgeLabel;html=1;align=center;verticalAlign=middle;resizable=0;points=[];" vertex="1" connectable="0" parent="UPKNqpDb2F0XAEcJruI5-92">
          <mxGeometry x="-0.0809" relative="1" as="geometry">
            <mxPoint as="offset" />
          </mxGeometry>
        </mxCell>
        <mxCell id="UPKNqpDb2F0XAEcJruI5-129" value="" style="edgeStyle=orthogonalEdgeStyle;rounded=0;orthogonalLoop=1;jettySize=auto;html=1;" edge="1" parent="WIyWlLk6GJQsqaUBKTNV-1" source="UPKNqpDb2F0XAEcJruI5-87" target="UPKNqpDb2F0XAEcJruI5-128">
          <mxGeometry relative="1" as="geometry" />
        </mxCell>
        <mxCell id="UPKNqpDb2F0XAEcJruI5-133" value="Yes" style="edgeLabel;html=1;align=center;verticalAlign=middle;resizable=0;points=[];" vertex="1" connectable="0" parent="UPKNqpDb2F0XAEcJruI5-129">
          <mxGeometry x="-0.0462" y="2" relative="1" as="geometry">
            <mxPoint as="offset" />
          </mxGeometry>
        </mxCell>
        <mxCell id="UPKNqpDb2F0XAEcJruI5-87" value="Go to Edit Menu&lt;span style=&quot;background-color: initial;&quot;&gt;?&lt;/span&gt;" style="rhombus;whiteSpace=wrap;html=1;rounded=0;" vertex="1" parent="WIyWlLk6GJQsqaUBKTNV-1">
          <mxGeometry x="-615" y="660" width="105" height="80" as="geometry" />
        </mxCell>
        <mxCell id="UPKNqpDb2F0XAEcJruI5-94" value="" style="edgeStyle=orthogonalEdgeStyle;rounded=0;orthogonalLoop=1;jettySize=auto;html=1;" edge="1" parent="WIyWlLk6GJQsqaUBKTNV-1" source="UPKNqpDb2F0XAEcJruI5-91" target="UPKNqpDb2F0XAEcJruI5-93">
          <mxGeometry relative="1" as="geometry" />
        </mxCell>
        <mxCell id="UPKNqpDb2F0XAEcJruI5-106" value="No" style="edgeLabel;html=1;align=center;verticalAlign=middle;resizable=0;points=[];" vertex="1" connectable="0" parent="UPKNqpDb2F0XAEcJruI5-94">
          <mxGeometry x="-0.187" y="-2" relative="1" as="geometry">
            <mxPoint as="offset" />
          </mxGeometry>
        </mxCell>
        <mxCell id="UPKNqpDb2F0XAEcJruI5-127" value="" style="edgeStyle=orthogonalEdgeStyle;rounded=0;orthogonalLoop=1;jettySize=auto;html=1;" edge="1" parent="WIyWlLk6GJQsqaUBKTNV-1" source="UPKNqpDb2F0XAEcJruI5-91" target="UPKNqpDb2F0XAEcJruI5-126">
          <mxGeometry relative="1" as="geometry" />
        </mxCell>
        <mxCell id="UPKNqpDb2F0XAEcJruI5-134" value="Yes" style="edgeLabel;html=1;align=center;verticalAlign=middle;resizable=0;points=[];" vertex="1" connectable="0" parent="UPKNqpDb2F0XAEcJruI5-127">
          <mxGeometry x="-0.2872" y="-2" relative="1" as="geometry">
            <mxPoint as="offset" />
          </mxGeometry>
        </mxCell>
        <mxCell id="UPKNqpDb2F0XAEcJruI5-91" value="Go to QR Code&amp;nbsp;&lt;div&gt;Entry?&lt;/div&gt;" style="rhombus;whiteSpace=wrap;html=1;rounded=0;" vertex="1" parent="WIyWlLk6GJQsqaUBKTNV-1">
          <mxGeometry x="-615" y="820" width="105" height="80" as="geometry" />
        </mxCell>
        <mxCell id="UPKNqpDb2F0XAEcJruI5-96" value="" style="edgeStyle=orthogonalEdgeStyle;rounded=0;orthogonalLoop=1;jettySize=auto;html=1;" edge="1" parent="WIyWlLk6GJQsqaUBKTNV-1" source="UPKNqpDb2F0XAEcJruI5-93" target="UPKNqpDb2F0XAEcJruI5-95">
          <mxGeometry relative="1" as="geometry" />
        </mxCell>
        <mxCell id="UPKNqpDb2F0XAEcJruI5-105" value="No" style="edgeLabel;html=1;align=center;verticalAlign=middle;resizable=0;points=[];" vertex="1" connectable="0" parent="UPKNqpDb2F0XAEcJruI5-96">
          <mxGeometry x="-0.0761" relative="1" as="geometry">
            <mxPoint x="1" as="offset" />
          </mxGeometry>
        </mxCell>
        <mxCell id="UPKNqpDb2F0XAEcJruI5-111" value="" style="edgeStyle=orthogonalEdgeStyle;rounded=0;orthogonalLoop=1;jettySize=auto;html=1;" edge="1" parent="WIyWlLk6GJQsqaUBKTNV-1" source="UPKNqpDb2F0XAEcJruI5-93" target="UPKNqpDb2F0XAEcJruI5-110">
          <mxGeometry relative="1" as="geometry" />
        </mxCell>
        <mxCell id="UPKNqpDb2F0XAEcJruI5-117" value="&lt;span style=&quot;color: rgba(0, 0, 0, 0); font-family: monospace; font-size: 0px; text-align: start; background-color: rgb(251, 251, 251);&quot;&gt;%3CmxGraphModel%3E%3Croot%3E%3CmxCell%20id%3D%220%22%2F%3E%3CmxCell%20id%3D%221%22%20parent%3D%220%22%2F%3E%3CmxCell%20id%3D%222%22%20value%3D%22Yes%22%20style%3D%22edgeLabel%3Bhtml%3D1%3Balign%3Dcenter%3BverticalAlign%3Dmiddle%3Bresizable%3D0%3Bpoints%3D%5B%5D%3B%22%20vertex%3D%221%22%20connectable%3D%220%22%20parent%3D%221%22%3E%3CmxGeometry%20x%3D%227.275735294117794%22%20y%3D%221021.0588235294117%22%20as%3D%22geometry%22%2F%3E%3C%2FmxCell%3E%3C%2Froot%3E%3C%2FmxGraphModel%3E&lt;/span&gt;" style="edgeLabel;html=1;align=center;verticalAlign=middle;resizable=0;points=[];" vertex="1" connectable="0" parent="UPKNqpDb2F0XAEcJruI5-111">
          <mxGeometry x="-0.1307" y="4" relative="1" as="geometry">
            <mxPoint as="offset" />
          </mxGeometry>
        </mxCell>
        <mxCell id="UPKNqpDb2F0XAEcJruI5-121" value="Yes" style="edgeLabel;html=1;align=center;verticalAlign=middle;resizable=0;points=[];" vertex="1" connectable="0" parent="UPKNqpDb2F0XAEcJruI5-111">
          <mxGeometry x="-0.3399" y="2" relative="1" as="geometry">
            <mxPoint as="offset" />
          </mxGeometry>
        </mxCell>
        <mxCell id="UPKNqpDb2F0XAEcJruI5-93" value="Go to Profile?" style="rhombus;whiteSpace=wrap;html=1;rounded=0;" vertex="1" parent="WIyWlLk6GJQsqaUBKTNV-1">
          <mxGeometry x="-650" y="980" width="105" height="80" as="geometry" />
        </mxCell>
        <mxCell id="UPKNqpDb2F0XAEcJruI5-98" value="" style="edgeStyle=orthogonalEdgeStyle;rounded=0;orthogonalLoop=1;jettySize=auto;html=1;" edge="1" parent="WIyWlLk6GJQsqaUBKTNV-1" source="UPKNqpDb2F0XAEcJruI5-95" target="UPKNqpDb2F0XAEcJruI5-97">
          <mxGeometry relative="1" as="geometry" />
        </mxCell>
        <mxCell id="UPKNqpDb2F0XAEcJruI5-104" value="No" style="edgeLabel;html=1;align=center;verticalAlign=middle;resizable=0;points=[];" vertex="1" connectable="0" parent="UPKNqpDb2F0XAEcJruI5-98">
          <mxGeometry x="-0.2235" y="2" relative="1" as="geometry">
            <mxPoint x="1" as="offset" />
          </mxGeometry>
        </mxCell>
        <mxCell id="UPKNqpDb2F0XAEcJruI5-113" value="" style="edgeStyle=orthogonalEdgeStyle;rounded=0;orthogonalLoop=1;jettySize=auto;html=1;" edge="1" parent="WIyWlLk6GJQsqaUBKTNV-1" source="UPKNqpDb2F0XAEcJruI5-95" target="UPKNqpDb2F0XAEcJruI5-112">
          <mxGeometry relative="1" as="geometry" />
        </mxCell>
        <mxCell id="UPKNqpDb2F0XAEcJruI5-118" value="&lt;span style=&quot;color: rgba(0, 0, 0, 0); font-family: monospace; font-size: 0px; text-align: start; background-color: rgb(251, 251, 251);&quot;&gt;%3CmxGraphModel%3E%3Croot%3E%3CmxCell%20id%3D%220%22%2F%3E%3CmxCell%20id%3D%221%22%20parent%3D%220%22%2F%3E%3CmxCell%20id%3D%222%22%20value%3D%22Yes%22%20style%3D%22edgeLabel%3Bhtml%3D1%3Balign%3Dcenter%3BverticalAlign%3Dmiddle%3Bresizable%3D0%3Bpoints%3D%5B%5D%3B%22%20vertex%3D%221%22%20connectable%3D%220%22%20parent%3D%221%22%3E%3CmxGeometry%20x%3D%227.275735294117794%22%20y%3D%221021.0588235294117%22%20as%3D%22geometry%22%2F%3E%3C%2FmxCell%3E%3C%2Froot%3E%3C%2FmxGraphModel%3E&lt;/span&gt;" style="edgeLabel;html=1;align=center;verticalAlign=middle;resizable=0;points=[];" vertex="1" connectable="0" parent="UPKNqpDb2F0XAEcJruI5-113">
          <mxGeometry x="-0.2614" y="-1" relative="1" as="geometry">
            <mxPoint as="offset" />
          </mxGeometry>
        </mxCell>
        <mxCell id="UPKNqpDb2F0XAEcJruI5-120" value="Yes" style="edgeLabel;html=1;align=center;verticalAlign=middle;resizable=0;points=[];" vertex="1" connectable="0" parent="UPKNqpDb2F0XAEcJruI5-113">
          <mxGeometry x="-0.4444" relative="1" as="geometry">
            <mxPoint as="offset" />
          </mxGeometry>
        </mxCell>
        <mxCell id="UPKNqpDb2F0XAEcJruI5-95" value="Go to Order List?" style="rhombus;whiteSpace=wrap;html=1;rounded=0;" vertex="1" parent="WIyWlLk6GJQsqaUBKTNV-1">
          <mxGeometry x="-470" y="980" width="105" height="80" as="geometry" />
        </mxCell>
        <mxCell id="UPKNqpDb2F0XAEcJruI5-100" value="" style="edgeStyle=orthogonalEdgeStyle;rounded=0;orthogonalLoop=1;jettySize=auto;html=1;" edge="1" parent="WIyWlLk6GJQsqaUBKTNV-1" source="UPKNqpDb2F0XAEcJruI5-97" target="UPKNqpDb2F0XAEcJruI5-99">
          <mxGeometry relative="1" as="geometry" />
        </mxCell>
        <mxCell id="UPKNqpDb2F0XAEcJruI5-103" value="No" style="edgeLabel;html=1;align=center;verticalAlign=middle;resizable=0;points=[];" vertex="1" connectable="0" parent="UPKNqpDb2F0XAEcJruI5-100">
          <mxGeometry x="-0.061" y="-4" relative="1" as="geometry">
            <mxPoint as="offset" />
          </mxGeometry>
        </mxCell>
        <mxCell id="UPKNqpDb2F0XAEcJruI5-115" value="" style="edgeStyle=orthogonalEdgeStyle;rounded=0;orthogonalLoop=1;jettySize=auto;html=1;" edge="1" parent="WIyWlLk6GJQsqaUBKTNV-1" source="UPKNqpDb2F0XAEcJruI5-97" target="UPKNqpDb2F0XAEcJruI5-114">
          <mxGeometry relative="1" as="geometry" />
        </mxCell>
        <mxCell id="UPKNqpDb2F0XAEcJruI5-119" value="Yes" style="edgeLabel;html=1;align=center;verticalAlign=middle;resizable=0;points=[];" vertex="1" connectable="0" parent="UPKNqpDb2F0XAEcJruI5-115">
          <mxGeometry x="-0.2614" y="2" relative="1" as="geometry">
            <mxPoint as="offset" />
          </mxGeometry>
        </mxCell>
        <mxCell id="UPKNqpDb2F0XAEcJruI5-97" value="Go to View&lt;div&gt;Graph?&lt;/div&gt;" style="rhombus;whiteSpace=wrap;html=1;rounded=0;" vertex="1" parent="WIyWlLk6GJQsqaUBKTNV-1">
          <mxGeometry x="-300" y="980" width="105" height="80" as="geometry" />
        </mxCell>
        <mxCell id="UPKNqpDb2F0XAEcJruI5-101" value="" style="edgeStyle=orthogonalEdgeStyle;rounded=0;orthogonalLoop=1;jettySize=auto;html=1;" edge="1" parent="WIyWlLk6GJQsqaUBKTNV-1" source="UPKNqpDb2F0XAEcJruI5-99" target="UPKNqpDb2F0XAEcJruI5-69">
          <mxGeometry relative="1" as="geometry" />
        </mxCell>
        <mxCell id="UPKNqpDb2F0XAEcJruI5-102" value="Yes" style="edgeLabel;html=1;align=center;verticalAlign=middle;resizable=0;points=[];" vertex="1" connectable="0" parent="UPKNqpDb2F0XAEcJruI5-101">
          <mxGeometry x="-0.1637" y="-1" relative="1" as="geometry">
            <mxPoint as="offset" />
          </mxGeometry>
        </mxCell>
        <mxCell id="UPKNqpDb2F0XAEcJruI5-135" style="edgeStyle=orthogonalEdgeStyle;rounded=0;orthogonalLoop=1;jettySize=auto;html=1;exitX=0.5;exitY=0;exitDx=0;exitDy=0;" edge="1" parent="WIyWlLk6GJQsqaUBKTNV-1" source="UPKNqpDb2F0XAEcJruI5-99">
          <mxGeometry relative="1" as="geometry">
            <mxPoint x="-160" y="740" as="targetPoint" />
          </mxGeometry>
        </mxCell>
        <mxCell id="UPKNqpDb2F0XAEcJruI5-136" value="Np" style="edgeLabel;html=1;align=center;verticalAlign=middle;resizable=0;points=[];" vertex="1" connectable="0" parent="UPKNqpDb2F0XAEcJruI5-135">
          <mxGeometry x="-0.216" relative="1" as="geometry">
            <mxPoint x="-1" as="offset" />
          </mxGeometry>
        </mxCell>
        <mxCell id="UPKNqpDb2F0XAEcJruI5-99" value="Go to Delog&lt;span style=&quot;background-color: initial;&quot;&gt;?&lt;/span&gt;" style="rhombus;whiteSpace=wrap;html=1;rounded=0;" vertex="1" parent="WIyWlLk6GJQsqaUBKTNV-1">
          <mxGeometry x="-140" y="980" width="105" height="80" as="geometry" />
        </mxCell>
        <mxCell id="UPKNqpDb2F0XAEcJruI5-110" value="Profile Activity" style="whiteSpace=wrap;html=1;rounded=0;" vertex="1" parent="WIyWlLk6GJQsqaUBKTNV-1">
          <mxGeometry x="-657.5" y="1150" width="120" height="60" as="geometry" />
        </mxCell>
        <mxCell id="UPKNqpDb2F0XAEcJruI5-112" value="Order List Activity" style="whiteSpace=wrap;html=1;rounded=0;" vertex="1" parent="WIyWlLk6GJQsqaUBKTNV-1">
          <mxGeometry x="-477.5" y="1150" width="120" height="60" as="geometry" />
        </mxCell>
        <mxCell id="UPKNqpDb2F0XAEcJruI5-114" value="View Graph Activity" style="whiteSpace=wrap;html=1;rounded=0;" vertex="1" parent="WIyWlLk6GJQsqaUBKTNV-1">
          <mxGeometry x="-307.5" y="1150" width="120" height="60" as="geometry" />
        </mxCell>
        <mxCell id="UPKNqpDb2F0XAEcJruI5-126" value="QR Code Entry&lt;div&gt;Activity&lt;/div&gt;" style="whiteSpace=wrap;html=1;rounded=0;" vertex="1" parent="WIyWlLk6GJQsqaUBKTNV-1">
          <mxGeometry x="-420" y="830" width="120" height="60" as="geometry" />
        </mxCell>
        <mxCell id="UPKNqpDb2F0XAEcJruI5-128" value="Edit Menu Activity" style="whiteSpace=wrap;html=1;rounded=0;" vertex="1" parent="WIyWlLk6GJQsqaUBKTNV-1">
          <mxGeometry x="-622.5" y="510" width="120" height="60" as="geometry" />
        </mxCell>
        <mxCell id="UPKNqpDb2F0XAEcJruI5-130" value="User List Activity" style="whiteSpace=wrap;html=1;rounded=0;" vertex="1" parent="WIyWlLk6GJQsqaUBKTNV-1">
          <mxGeometry x="-437.5" y="510" width="120" height="60" as="geometry" />
        </mxCell>
      </root>
    </mxGraphModel>
  </diagram>
</mxfile>
